<svg version="1.2" baseProfile="tiny-ps" xmlns="http://www.w3.org/2000/svg" viewBox="0 0 480 379" width="507" height="400">
	<title>weather-ai</title>
	<style>
		tspan { white-space:pre }
		.shp0 { fill: #020407 } 
	</style>
	<g id="Layer 1">
		<path id="&lt;Compound Path&gt;" fill-rule="evenodd" class="shp0" d="M771.1 292.1C715.96 292.1 671.1 247.24 671.1 192.1C671.1 136.96 715.96 92.1 771.1 92.1C826.24 92.1 871.1 136.96 871.1 192.1C871.1 247.24 826.24 292.1 771.1 292.1ZM771.1 112.1C726.99 112.1 691.1 147.99 691.1 192.1C691.1 236.21 726.99 272.1 771.1 272.1C815.21 272.1 851.1 236.21 851.1 192.1C851.1 147.99 815.21 112.1 771.1 112.1Z" />
		<path id="&lt;Path&gt;" class="shp0" d="M771 76C765.48 76 761 71.52 761 66L761 12C761 6.48 765.48 2 771 2C776.52 2 781 6.48 781 12L781 66C781 71.52 776.52 76 771 76Z" />
		<path id="&lt;Path&gt;" class="shp0" d="M771 382C765.48 382 761 377.52 761 372L761 318C761 312.48 765.48 308 771 308C776.52 308 781 312.48 781 318L781 372C781 377.52 776.52 382 771 382Z" />
		<path id="&lt;Path&gt;" class="shp0" d="M645 202L591 202C585.48 202 581 197.52 581 192C581 186.48 585.48 182 591 182L645 182C650.52 182 655 186.48 655 192C655 197.52 650.52 202 645 202Z" />
		<path id="&lt;Path&gt;" class="shp0" d="M951 202L897 202C891.48 202 887 197.52 887 192C887 186.48 891.48 182 897 182L951 182C956.52 182 961 186.48 961 192C961 197.52 956.52 202 951 202Z" />
		<path id="&lt;Path&gt;" class="shp0" d="M859.54 113.46C856.98 113.46 854.42 112.48 852.47 110.53C848.57 106.62 848.57 100.29 852.47 96.39L891.21 57.65C895.11 53.74 901.45 53.74 905.35 57.65C909.26 61.55 909.26 67.89 905.35 71.79L866.61 110.53C864.66 112.48 862.1 113.46 859.54 113.46Z" />
		<path id="&lt;Path&gt;" class="shp0" d="M643.72 329.28C641.16 329.28 638.6 328.3 636.65 326.35C632.74 322.45 632.74 316.11 636.65 312.21L675.39 273.47C679.29 269.57 685.62 269.57 689.53 273.47C693.43 277.38 693.43 283.71 689.53 287.61L650.79 326.35C648.84 328.3 646.28 329.28 643.72 329.28Z" />
		<path id="&lt;Path&gt;" class="shp0" d="M682.46 113.46C679.9 113.46 677.34 112.48 675.39 110.53L636.65 71.79C632.74 67.89 632.74 61.55 636.65 57.65C640.55 53.74 646.89 53.74 650.79 57.65L689.53 96.39C693.43 100.29 693.43 106.62 689.53 110.53C687.58 112.48 685.02 113.46 682.46 113.46Z" />
		<path id="&lt;Path&gt;" class="shp0" d="M898.28 329.28C895.72 329.28 893.16 328.3 891.21 326.35L852.47 287.61C848.57 283.71 848.57 277.38 852.47 273.47C856.38 269.57 862.71 269.57 866.61 273.47L905.35 312.21C909.26 316.11 909.26 322.45 905.35 326.35C903.4 328.3 900.84 329.28 898.28 329.28Z" />
		<path id="&lt;Path&gt;" class="shp0" d="M1408.8 242C1405.89 242 1403.01 240.74 1401.03 238.3C1397.55 234.02 1398.2 227.72 1402.49 224.24C1421.31 208.96 1432.1 186.31 1432.1 162.1C1432.1 117.99 1396.21 82.1 1352.1 82.1C1311.29 82.1 1277.12 112.63 1272.6 153.11C1271.98 158.6 1267.04 162.55 1261.55 161.94C1256.06 161.32 1252.11 156.38 1252.72 150.89C1258.37 100.27 1301.09 62.1 1352.1 62.1C1407.24 62.1 1452.1 106.96 1452.1 162.1C1452.1 192.36 1438.61 220.67 1415.1 239.76C1413.24 241.27 1411.01 242 1408.8 242Z" />
		<path id="&lt;Path&gt;" class="shp0" d="M1352 46C1346.48 46 1342 41.52 1342 36L1342 -18C1342 -23.52 1346.48 -28 1352 -28C1357.52 -28 1362 -23.52 1362 -18L1362 36C1362 41.52 1357.52 46 1352 46Z" />
		<path id="&lt;Path&gt;" class="shp0" d="M1226 172L1172 172C1166.48 172 1162 167.52 1162 162C1162 156.48 1166.48 152 1172 152L1226 152C1231.52 152 1236 156.48 1236 162C1236 167.52 1231.52 172 1226 172Z" />
		<path id="&lt;Path&gt;" class="shp0" d="M1532 172L1478 172C1472.48 172 1468 167.52 1468 162C1468 156.48 1472.48 152 1478 152L1532 152C1537.52 152 1542 156.48 1542 162C1542 167.52 1537.52 172 1532 172Z" />
		<path id="&lt;Path&gt;" class="shp0" d="M1440.54 83.46C1437.98 83.46 1435.42 82.48 1433.47 80.53C1429.57 76.62 1429.57 70.29 1433.47 66.39L1472.21 27.65C1476.11 23.74 1482.44 23.74 1486.35 27.65C1490.26 31.55 1490.26 37.89 1486.35 41.79L1447.61 80.53C1445.66 82.48 1443.1 83.46 1440.54 83.46Z" />
		<path id="&lt;Path&gt;" class="shp0" d="M1263.46 83.46C1260.9 83.46 1258.34 82.48 1256.39 80.53L1217.65 41.79C1213.74 37.89 1213.74 31.55 1217.65 27.65C1221.55 23.74 1227.89 23.74 1231.79 27.65L1270.53 66.39C1274.43 70.29 1274.43 76.62 1270.53 80.53C1268.58 82.48 1266.02 83.46 1263.46 83.46Z" />
		<path id="&lt;Path&gt;" class="shp0" d="M1479.28 299.28C1476.72 299.28 1474.16 298.3 1472.21 296.35L1433.47 257.61C1429.57 253.71 1429.57 247.38 1433.47 243.47C1437.38 239.57 1443.71 239.57 1447.61 243.47L1486.35 282.21C1490.26 286.11 1490.26 292.45 1486.35 296.35C1484.4 298.3 1481.84 299.28 1479.28 299.28Z" />
		<path id="&lt;Compound Path&gt;" fill-rule="evenodd" class="shp0" d="M1151.97 392C1113.5 391.75 1082.25 360.34 1082.25 321.99C1082.25 288.67 1105.24 260.81 1136.53 253.73C1136.02 250.93 1135.76 248.08 1135.76 245.17C1135.76 218.92 1157.12 197.56 1183.38 197.56C1192.1 197.56 1200.45 199.89 1207.75 204.25C1227.73 177.83 1258.56 162.35 1292.21 162.35C1344.79 162.35 1389.12 201.09 1396.99 252.14C1433.38 254.59 1462.25 284.98 1462.25 321.99C1462.25 360.22 1431.15 391.62 1392.93 391.99L1151.97 392ZM1183.38 217.56C1168.15 217.56 1155.76 229.95 1155.76 245.17C1155.76 249.52 1156.75 253.68 1158.69 257.55C1160.22 260.58 1160.1 264.19 1158.37 267.12C1156.65 270.04 1153.55 271.9 1150.15 272.03C1123.29 273.09 1102.25 295.04 1102.25 321.99C1102.25 349.39 1124.58 371.82 1152.03 372L1392.83 372C1420.04 371.73 1442.25 349.3 1442.25 321.99C1442.25 294.41 1419.81 271.98 1392.23 271.98C1391.21 271.98 1390.09 272.02 1388.72 272.12C1386.07 272.3 1383.44 271.42 1381.44 269.67C1379.44 267.91 1378.22 265.44 1378.05 262.78C1375.15 217.68 1337.45 182.35 1292.21 182.35C1261.87 182.35 1234.35 197.86 1218.59 223.84C1217 226.47 1214.28 228.22 1211.23 228.58C1208.17 228.94 1205.12 227.89 1202.95 225.7C1197.73 220.45 1190.78 217.56 1183.38 217.56Z" />
		<path id="&lt;Path&gt;" class="shp0" d="M2514.53 191.5C2512.02 191.5 2509.51 190.51 2507.64 188.54C2504.03 184.73 2504.19 178.72 2507.99 175.11C2522.48 161.36 2530.46 142.8 2530.46 122.83C2530.46 83.11 2498.15 50.8 2458.42 50.8C2423.54 50.8 2393.72 75.67 2387.54 109.94C2386.6 115.1 2381.66 118.53 2376.5 117.6C2371.34 116.67 2367.91 111.73 2368.84 106.56C2376.66 63.24 2414.34 31.8 2458.42 31.8C2508.62 31.8 2549.46 72.63 2549.46 122.83C2549.46 148.06 2539.38 171.52 2521.07 188.89C2519.23 190.64 2516.88 191.5 2514.53 191.5Z" />
		<path id="&lt;Path&gt;" class="shp0" d="M2430.27 23.83C2425.9 23.83 2421.96 20.79 2421 16.35L2410.98 -29.57C2409.86 -34.7 2413.11 -39.76 2418.23 -40.88C2423.37 -42 2428.42 -38.74 2429.54 -33.62L2439.56 12.3C2440.68 17.43 2437.43 22.49 2432.3 23.61C2431.62 23.76 2430.94 23.83 2430.27 23.83Z" />
		<path id="&lt;Path&gt;" class="shp0" d="M2569.9 112.6C2565.53 112.6 2561.6 109.57 2560.63 105.13C2559.51 100 2562.76 94.94 2567.88 93.82L2616.73 83.16C2621.87 82.04 2626.92 85.29 2628.04 90.42C2629.16 95.55 2625.91 100.61 2620.79 101.73L2571.93 112.38C2571.25 112.53 2570.57 112.6 2569.9 112.6Z" />
		<path id="&lt;Path&gt;" class="shp0" d="M2518.77 39.86C2517.02 39.86 2515.24 39.37 2513.65 38.35C2509.23 35.52 2507.95 29.64 2510.79 25.23L2537.59 -16.54C2540.43 -20.96 2546.3 -22.24 2550.72 -19.41C2555.14 -16.57 2556.42 -10.7 2553.58 -6.28L2526.78 35.49C2524.96 38.31 2521.9 39.86 2518.77 39.86Z" />
		<path id="&lt;Path&gt;" class="shp0" d="M2362.03 74.05C2360.27 74.05 2358.49 73.57 2356.9 72.55L2315.13 45.74C2310.72 42.91 2309.44 37.03 2312.27 32.61C2315.1 28.2 2320.98 26.92 2325.4 29.75L2367.17 56.56C2371.58 59.39 2372.86 65.27 2370.03 69.69C2368.21 72.51 2365.15 74.05 2362.03 74.05Z" />
		<path id="&lt;Path&gt;" class="shp0" d="M2593.76 223.63C2592 223.63 2590.23 223.14 2588.64 222.12L2546.87 195.31C2542.46 192.48 2541.17 186.6 2544.01 182.19C2546.84 177.77 2552.72 176.49 2557.13 179.32L2598.9 206.13C2603.32 208.96 2604.6 214.84 2601.77 219.26C2599.95 222.08 2596.89 223.63 2593.76 223.63Z" />
		<path id="&lt;Compound Path&gt;" fill-rule="evenodd" class="shp0" d="M2277.11 331.56C2242.01 331.33 2213.51 302.68 2213.51 267.7C2213.51 237.44 2234.28 212.13 2262.62 205.52C2262.2 203.09 2261.99 200.61 2261.99 198.1C2261.99 174.07 2281.54 154.52 2305.57 154.52C2313.41 154.52 2320.94 156.58 2327.53 160.44C2345.72 136.59 2373.67 122.62 2404.16 122.62C2451.91 122.62 2492.17 157.7 2499.47 203.99C2532.51 206.4 2558.66 234.05 2558.66 267.7C2558.66 302.56 2530.29 331.21 2495.42 331.56L2277.11 331.56ZM2305.57 173.52C2292.02 173.52 2280.99 184.55 2280.99 198.1C2280.99 201.96 2281.87 205.67 2283.6 209.11C2285.05 211.99 2284.94 215.42 2283.29 218.2C2281.66 220.98 2278.71 222.74 2275.49 222.87C2251.39 223.82 2232.51 243.51 2232.51 267.7C2232.51 292.27 2252.54 312.4 2277.17 312.56L2495.33 312.56C2519.73 312.32 2539.66 292.19 2539.66 267.7C2539.66 242.95 2519.53 222.82 2494.79 222.82C2493.86 222.82 2492.86 222.86 2491.63 222.95C2489.1 223.13 2486.62 222.28 2484.72 220.62C2482.82 218.96 2481.66 216.6 2481.49 214.08C2478.89 173.45 2444.92 141.62 2404.16 141.62C2376.83 141.62 2352.04 155.6 2337.85 179C2336.33 181.5 2333.75 183.16 2330.85 183.5C2327.95 183.85 2325.05 182.84 2322.99 180.77C2318.34 176.1 2312.15 173.52 2305.57 173.52Z" />
		<path id="&lt;Path&gt;" class="shp0" d="M2360.45 430.82C2358.02 430.82 2355.59 429.89 2353.73 428.04C2350.02 424.32 2350.03 418.31 2353.74 414.6L2376.43 391.94C2380.14 388.23 2386.15 388.23 2389.86 391.94C2393.57 395.65 2393.57 401.67 2389.85 405.38L2367.17 428.04C2365.31 429.9 2362.88 430.82 2360.45 430.82Z" />
		<path id="&lt;Path&gt;" class="shp0" d="M2281.63 379.18C2279.2 379.18 2276.77 378.25 2274.91 376.4C2271.2 372.68 2271.21 366.67 2274.92 362.96L2289.23 348.67C2292.94 344.96 2298.95 344.96 2302.66 348.67C2306.37 352.39 2306.37 358.4 2302.65 362.11L2288.35 376.4C2286.49 378.25 2284.06 379.18 2281.63 379.18Z" />
		<path id="&lt;Path&gt;" class="shp0" d="M2407.56 379.18C2405.13 379.18 2402.7 378.25 2400.84 376.4C2397.13 372.68 2397.14 366.67 2400.85 362.96L2415.16 348.67C2418.87 344.96 2424.88 344.96 2428.59 348.67C2432.3 352.39 2432.3 358.4 2428.58 362.11L2414.28 376.4C2412.42 378.25 2409.99 379.18 2407.56 379.18Z" />
		<path id="&lt;Path&gt;" class="shp0" d="M2448.33 401.98C2445.9 401.98 2443.47 401.05 2441.61 399.19C2437.9 395.48 2437.91 389.46 2441.62 385.76L2478.76 348.67C2482.47 344.96 2488.48 344.96 2492.19 348.67C2495.9 352.39 2495.9 358.4 2492.18 362.11L2455.05 399.2C2453.19 401.05 2450.76 401.98 2448.33 401.98Z" />
		<path id="&lt;Path&gt;" class="shp0" d="M2311.53 411.94C2309.1 411.94 2306.66 411.02 2304.81 409.16C2301.1 405.45 2301.1 399.43 2304.82 395.72L2351.92 348.67C2355.63 344.96 2361.65 344.96 2365.35 348.67C2369.06 352.39 2369.06 358.4 2365.35 362.11L2318.24 409.17C2316.39 411.02 2313.96 411.94 2311.53 411.94Z" />
		<path id="&lt;Compound Path&gt;" fill-rule="evenodd" class="shp0" d="M1722.97 370C1684.5 369.75 1653.25 338.34 1653.25 299.99C1653.25 266.67 1676.24 238.81 1707.53 231.73C1707.02 228.93 1706.76 226.07 1706.76 223.17C1706.76 196.92 1728.12 175.56 1754.38 175.56C1763.1 175.56 1771.45 177.89 1778.75 182.25C1798.73 155.83 1829.56 140.35 1863.21 140.35C1915.79 140.35 1960.12 179.09 1967.99 230.14C2004.38 232.59 2033.25 262.98 2033.25 299.99C2033.25 338.22 2002.15 369.62 1963.93 369.99L1722.97 370ZM1754.38 195.56C1739.15 195.56 1726.76 207.95 1726.76 223.17C1726.76 227.51 1727.75 231.68 1729.7 235.55C1731.22 238.58 1731.1 242.19 1729.38 245.12C1727.65 248.04 1724.55 249.9 1721.16 250.03C1694.29 251.09 1673.25 273.04 1673.25 299.99C1673.25 327.39 1695.58 349.82 1723.03 350L1963.83 350C1991.04 349.73 2013.25 327.3 2013.25 299.99C2013.25 272.41 1990.81 249.98 1963.23 249.98C1962.21 249.98 1961.09 250.02 1959.72 250.12C1957.07 250.3 1954.44 249.42 1952.44 247.67C1950.44 245.91 1949.22 243.44 1949.05 240.78C1946.15 195.68 1908.45 160.35 1863.21 160.35C1832.87 160.35 1805.35 175.86 1789.59 201.84C1788 204.47 1785.28 206.22 1782.23 206.58C1779.17 206.94 1776.12 205.89 1773.95 203.7C1768.73 198.45 1761.78 195.56 1754.38 195.56Z" />
		<path id="&lt;Path&gt;" class="shp0" d="M2022.24 245.17C2017.71 245.17 2013.6 242.06 2012.52 237.46C2011.25 232.08 2014.58 226.7 2019.95 225.43C2038.29 221.11 2054.91 211.7 2068.04 198.39C2045.1 192.94 2024.19 180.8 2007.89 163.21C1987.27 140.97 1975.91 112 1975.91 81.65C1975.91 63 1980.16 44.9 1988.31 28.46C1965.31 30.42 1943.84 40.19 1927.13 56.47C1908.39 74.73 1897.67 99.16 1896.95 125.28C1896.8 130.8 1892.21 135.19 1886.68 135C1881.16 134.84 1876.81 130.25 1876.96 124.72C1877.83 93.38 1890.69 64.05 1913.18 42.14C1935.71 20.19 1965.45 8.1 1996.91 8.1C2000.12 8.1 2003.4 8.23 2006.67 8.49C2010.25 8.78 2013.4 10.96 2014.92 14.21C2016.45 17.46 2016.11 21.28 2014.05 24.21C2002.18 41.09 1995.91 60.95 1995.91 81.65C1995.91 106.94 2005.38 131.08 2022.56 149.61C2039.65 168.05 2062.8 179.31 2087.76 181.32C2091.33 181.61 2094.48 183.79 2096.01 187.04C2097.53 190.29 2097.2 194.11 2095.14 197.04C2078.17 221.17 2053.1 238.16 2024.54 244.9C2023.77 245.08 2023 245.17 2022.24 245.17Z" />
		<path id="&lt;Compound Path&gt;" fill-rule="evenodd" class="shp0" d="M2285.07 935.62C2249.22 935.38 2220.1 906.12 2220.1 870.38C2220.1 839.59 2241.16 813.81 2269.95 806.94C2269.56 804.56 2269.36 802.13 2269.36 799.67C2269.36 775.07 2289.38 755.05 2313.98 755.05C2321.91 755.05 2329.52 757.11 2336.21 760.96C2354.76 736.78 2383.17 722.64 2414.15 722.64C2462.74 722.64 2503.72 758.27 2511.29 805.33C2544.9 807.93 2571.46 836.11 2571.46 870.38C2571.46 906 2542.49 935.26 2506.87 935.61L2285.07 935.62ZM2313.98 775.05C2300.4 775.05 2289.36 786.1 2289.36 799.67C2289.36 803.54 2290.24 807.26 2291.97 810.7C2293.5 813.74 2293.38 817.35 2291.65 820.27C2289.93 823.2 2286.83 825.05 2283.43 825.19C2259.14 826.15 2240.1 846 2240.1 870.38C2240.1 895.16 2260.3 915.45 2285.13 915.62L2506.78 915.61C2531.37 915.37 2551.46 895.08 2551.46 870.38C2551.46 845.43 2531.17 825.14 2506.22 825.14C2505.29 825.14 2504.28 825.18 2503.04 825.27C2500.38 825.45 2497.77 824.57 2495.77 822.82C2493.76 821.06 2492.54 818.59 2492.37 815.93C2489.73 774.83 2455.38 742.64 2414.15 742.64C2386.51 742.64 2361.43 756.78 2347.07 780.45C2345.48 783.08 2342.76 784.83 2339.71 785.19C2336.66 785.55 2333.6 784.49 2331.43 782.31C2326.78 777.63 2320.58 775.05 2313.98 775.05Z" />
		<path id="&lt;Path&gt;" class="shp0" d="M2567.25 818.88C2562.98 818.88 2559.03 816.13 2557.7 811.84C2556.06 806.57 2559.01 800.97 2564.29 799.33C2578.11 795.04 2590.77 787.41 2601.11 777.29C2580.39 772.08 2561.52 760.96 2546.74 745.02C2527.63 724.4 2517.1 697.55 2517.1 669.41C2517.1 652.59 2520.82 636.27 2527.97 621.38C2508.22 623.37 2489.69 631.72 2475.02 645.39C2458.17 661.1 2447.94 682.36 2446.23 705.25C2445.82 710.75 2441.01 714.89 2435.51 714.47C2430 714.06 2425.87 709.26 2426.29 703.75C2428.37 675.84 2440.84 649.91 2461.39 630.76C2482.04 611.51 2508.97 600.91 2537.22 600.91C2540.2 600.91 2543.24 601.03 2546.27 601.28C2549.85 601.57 2553 603.75 2554.52 607C2556.04 610.25 2555.71 614.06 2553.65 617C2542.82 632.4 2537.1 650.52 2537.1 669.41C2537.1 692.49 2545.73 714.51 2561.41 731.42C2577 748.25 2598.13 758.52 2620.91 760.36C2624.48 760.65 2627.63 762.83 2629.16 766.08C2630.68 769.32 2630.35 773.14 2628.28 776.08C2614.17 796.15 2593.54 811.2 2570.21 818.43C2569.23 818.74 2568.23 818.88 2567.25 818.88Z" />
		<path id="&lt;Path&gt;" class="shp0" d="M2375.27 1039.13C2372.7 1039.13 2370.14 1038.15 2368.19 1036.19C2364.29 1032.29 2364.29 1025.96 2368.2 1022.05L2391.25 999.03C2395.16 995.12 2401.49 995.13 2405.39 999.03C2409.29 1002.94 2409.29 1009.27 2405.38 1013.17L2382.33 1036.2C2380.38 1038.15 2377.82 1039.13 2375.27 1039.13Z" />
		<path id="&lt;Path&gt;" class="shp0" d="M2295.19 986.66C2292.62 986.66 2290.06 985.68 2288.11 983.73C2284.21 979.82 2284.21 973.49 2288.12 969.59L2302.65 955.07C2306.56 951.16 2312.89 951.17 2316.8 955.07C2320.7 958.98 2320.7 965.31 2316.79 969.22L2302.25 983.74C2300.3 985.69 2297.74 986.66 2295.19 986.66Z" />
		<path id="&lt;Path&gt;" class="shp0" d="M2423.13 986.66C2420.57 986.66 2418.01 985.68 2416.05 983.73C2412.15 979.82 2412.15 973.49 2416.06 969.59L2430.6 955.07C2434.5 951.16 2440.83 951.17 2444.74 955.07C2448.64 958.98 2448.64 965.31 2444.73 969.21L2430.2 983.74C2428.24 985.69 2425.69 986.66 2423.13 986.66Z" />
		<path id="&lt;Path&gt;" class="shp0" d="M2464.55 1009.82C2461.99 1009.82 2459.43 1008.85 2457.47 1006.89C2453.57 1002.98 2453.57 996.65 2457.48 992.75L2495.21 955.07C2499.12 951.16 2505.46 951.17 2509.36 955.07C2513.26 958.98 2513.25 965.31 2509.35 969.22L2471.62 1006.9C2469.66 1008.85 2467.11 1009.82 2464.55 1009.82Z" />
		<path id="&lt;Path&gt;" class="shp0" d="M2325.56 1019.95C2323 1019.95 2320.44 1018.97 2318.49 1017.02C2314.58 1013.11 2314.59 1006.78 2318.49 1002.87L2366.35 955.07C2370.26 951.16 2376.59 951.17 2380.49 955.07C2384.39 958.98 2384.39 965.31 2380.48 969.21L2332.63 1017.02C2330.68 1018.97 2328.12 1019.95 2325.56 1019.95Z" />
		<path id="&lt;Path&gt;" class="shp0" d="M1981 830L1727.92 830C1708.25 830 1691.63 813.06 1691.63 793.01C1691.63 772.61 1707.88 756.02 1727.86 756.02C1747.82 756.02 1764.06 772.51 1764.06 792.77C1764.06 798.29 1759.58 802.77 1754.06 802.77C1748.54 802.77 1744.06 798.29 1744.06 792.77C1744.06 783.69 1736.64 776.02 1727.86 776.02C1719.06 776.02 1711.63 783.8 1711.63 793.01C1711.63 802.22 1719.09 810 1727.92 810L1981 810C1986.52 810 1991 814.48 1991 820C1991 825.52 1986.52 830 1981 830Z" />
		<path id="&lt;Path&gt;" class="shp0" d="M2032 787L1827.14 787C1802.01 787 1781.57 766.36 1781.57 740.98C1781.57 715.61 1801.92 694.97 1826.93 694.97C1851.89 694.97 1872.19 715.53 1872.19 740.8C1872.19 746.32 1867.71 750.8 1862.19 750.8C1856.67 750.8 1852.19 746.32 1852.19 740.8C1852.19 726.55 1840.86 714.97 1826.93 714.97C1812.95 714.97 1801.57 726.64 1801.57 740.98C1801.57 755.09 1813.28 767 1827.14 767L2032 767C2037.52 767 2042 771.48 2042 777C2042 782.52 2037.52 787 2032 787Z" />
		<path id="&lt;Path&gt;" class="shp0" d="M1760.36 941.82C1748.23 941.82 1736.84 937.22 1728.31 928.85C1719.7 920.41 1714.95 909.06 1714.95 896.91C1714.95 872.15 1735.37 852 1760.47 852L2010 852C2015.52 852 2020 856.48 2020 862C2020 867.52 2015.52 872 2010 872L1760.47 872C1746.16 872 1734.95 882.94 1734.95 896.91C1734.95 910.88 1746.11 921.82 1760.36 921.82C1774.59 921.82 1785.73 910.8 1785.73 896.73C1785.73 891.21 1790.2 886.73 1795.73 886.73C1801.25 886.73 1805.73 891.21 1805.73 896.73C1805.73 921.59 1785.38 941.82 1760.36 941.82Z" />
		<path id="&lt;Path&gt;" class="shp0" d="M2009.71 1395L1757 1395C1751.48 1395 1747 1390.52 1747 1385C1747 1379.48 1751.48 1375 1757 1375L2009.71 1375C2018.56 1375 2026.05 1367.39 2026.05 1358.39C2026.05 1349.22 2018.79 1341.77 2009.86 1341.77C2000.98 1341.77 1993.75 1349.17 1993.75 1358.27C1993.75 1363.79 1989.27 1368.27 1983.75 1368.27C1978.23 1368.27 1973.75 1363.79 1973.75 1358.27C1973.75 1338.14 1989.95 1321.77 2009.86 1321.77C2029.81 1321.77 2046.05 1338.2 2046.05 1358.39C2046.05 1378.58 2029.75 1395 2009.71 1395Z" />
		<path id="&lt;Path&gt;" class="shp0" d="M1910.49 1352L1706 1352C1700.48 1352 1696 1347.52 1696 1342C1696 1336.48 1700.48 1332 1706 1332L1910.49 1332C1924.61 1332 1936.1 1320.5 1936.1 1306.36C1936.1 1292.22 1924.75 1280.72 1910.79 1280.72C1896.91 1280.72 1885.63 1292.19 1885.63 1306.3C1885.63 1311.82 1881.15 1316.3 1875.63 1316.3C1870.1 1316.3 1865.63 1311.82 1865.63 1306.3C1865.63 1281.16 1885.89 1260.72 1910.79 1260.72C1935.78 1260.72 1956.1 1281.19 1956.1 1306.36C1956.1 1331.52 1935.64 1352 1910.49 1352Z" />
		<path id="&lt;Path&gt;" class="shp0" d="M1995.36 1507.57C1970.39 1507.57 1950.09 1487.23 1950.09 1462.23C1950.09 1456.71 1954.56 1452.23 1960.09 1452.23C1965.61 1452.23 1970.09 1456.71 1970.09 1462.23C1970.09 1476.2 1981.42 1487.57 1995.36 1487.57C2009.34 1487.57 2020.72 1476.23 2020.72 1462.29C2020.72 1448.34 2009.26 1437 1995.16 1437L1726 1437C1720.48 1437 1716 1432.52 1716 1427C1716 1421.48 1720.48 1417 1726 1417L1995.16 1417C2020.28 1417 2040.72 1437.32 2040.72 1462.29C2040.72 1487.26 2020.37 1507.57 1995.36 1507.57Z" />
		<path id="&lt;Path&gt;" class="shp0" d="M1828.96 1560.94C1826.4 1560.94 1823.84 1559.96 1821.88 1558.01C1817.98 1554.1 1817.98 1547.77 1821.89 1543.87L1846.93 1518.85C1850.84 1514.95 1857.17 1514.95 1861.07 1518.86C1864.98 1522.76 1864.97 1529.09 1861.07 1533L1836.03 1558.01C1834.07 1559.96 1831.52 1560.94 1828.96 1560.94Z" />
		<path id="&lt;Path&gt;" class="shp0" d="M1741.96 1503.94C1739.4 1503.94 1736.84 1502.96 1734.88 1501.01C1730.98 1497.1 1730.98 1490.77 1734.89 1486.87L1750.68 1471.09C1754.59 1467.19 1760.92 1467.19 1764.82 1471.1C1768.73 1475 1768.72 1481.33 1764.82 1485.24L1749.03 1501.01C1747.07 1502.96 1744.52 1503.94 1741.96 1503.94Z" />
		<path id="&lt;Path&gt;" class="shp0" d="M1880.96 1503.94C1878.4 1503.94 1875.84 1502.96 1873.88 1501.01C1869.98 1497.1 1869.98 1490.77 1873.89 1486.87L1889.68 1471.09C1893.59 1467.19 1899.92 1467.19 1903.82 1471.1C1907.73 1475 1907.72 1481.33 1903.82 1485.24L1888.03 1501.01C1886.07 1502.96 1883.52 1503.94 1880.96 1503.94Z" />
		<path id="&lt;Path&gt;" class="shp0" d="M1923.96 1542.1C1921.39 1542.1 1918.83 1541.12 1916.88 1539.16C1912.98 1535.25 1912.99 1528.92 1916.9 1525.02L1935.89 1506.08C1939.8 1502.18 1946.13 1502.19 1950.03 1506.1C1953.93 1510.01 1953.92 1516.34 1950.01 1520.24L1931.02 1539.18C1929.07 1541.13 1926.51 1542.1 1923.96 1542.1Z" />
		<path id="&lt;Path&gt;" class="shp0" d="M1774.96 1540.1C1772.4 1540.1 1769.84 1539.13 1767.88 1537.17C1763.98 1533.26 1763.98 1526.93 1767.89 1523.03L1819.88 1471.09C1823.79 1467.19 1830.12 1467.19 1834.02 1471.1C1837.93 1475 1837.92 1481.33 1834.02 1485.24L1782.03 1537.18C1780.07 1539.13 1777.52 1540.1 1774.96 1540.1Z" />
		<path id="&lt;Path&gt;" class="shp0" d="M2605.71 1459L2288 1459C2282.48 1459 2278 1454.52 2278 1449C2278 1443.48 2282.48 1439 2288 1439L2605.71 1439C2614.6 1439 2622.11 1431.39 2622.11 1422.39C2622.11 1413.22 2614.88 1405.77 2605.99 1405.77C2597.17 1405.77 2590 1413.17 2590 1422.27C2590 1427.79 2585.52 1432.27 2580 1432.27C2574.48 1432.27 2570 1427.79 2570 1422.27C2570 1402.14 2586.14 1385.77 2605.99 1385.77C2625.9 1385.77 2642.11 1402.2 2642.11 1422.39C2642.11 1442.58 2625.78 1459 2605.71 1459Z" />
		<path id="&lt;Path&gt;" class="shp0" d="M2531.61 1571.57C2519.46 1571.57 2508.1 1566.85 2499.63 1558.27C2491.22 1549.75 2486.59 1538.37 2486.59 1526.23C2486.59 1520.71 2491.06 1516.23 2496.59 1516.23C2502.11 1516.23 2506.59 1520.71 2506.59 1526.23C2506.59 1540.44 2517.58 1551.57 2531.61 1551.57C2545.76 1551.57 2556.85 1540.47 2556.85 1526.29C2556.85 1512.34 2545.32 1501 2531.16 1501L2263 1501C2257.48 1501 2253 1496.52 2253 1491C2253 1485.48 2257.48 1481 2263 1481L2531.16 1481C2556.35 1481 2576.85 1501.32 2576.85 1526.29C2576.85 1551.26 2556.55 1571.57 2531.61 1571.57Z" />
		<path id="&lt;Path&gt;" class="shp0" d="M2422.16 1422L2314 1422C2308.48 1422 2304 1417.52 2304 1412C2304 1406.48 2308.48 1402 2314 1402L2422.16 1402C2436.32 1402 2447.85 1390.58 2447.85 1376.55C2447.85 1362.52 2436.52 1351.11 2422.61 1351.11C2408.58 1351.11 2397.59 1362.29 2397.59 1376.56C2397.59 1382.08 2393.11 1386.56 2387.59 1386.56C2382.06 1386.56 2377.59 1382.08 2377.59 1376.56C2377.59 1351.5 2397.78 1331.11 2422.61 1331.11C2447.55 1331.11 2467.85 1351.49 2467.85 1376.55C2467.85 1401.61 2447.35 1422 2422.16 1422Z" />
		<path id="&lt;Path&gt;" class="shp0" d="M2364.96 1624.94C2362.4 1624.94 2359.84 1623.96 2357.88 1622.01C2353.98 1618.1 2353.98 1611.77 2357.89 1607.87L2382.93 1582.85C2386.84 1578.95 2393.17 1578.95 2397.07 1582.86C2400.98 1586.76 2400.97 1593.09 2397.07 1597L2372.03 1622.01C2370.07 1623.96 2367.52 1624.94 2364.96 1624.94Z" />
		<path id="&lt;Path&gt;" class="shp0" d="M2277.96 1567.94C2275.4 1567.94 2272.84 1566.96 2270.88 1565.01C2266.98 1561.1 2266.98 1554.77 2270.89 1550.87L2286.68 1535.09C2290.59 1531.19 2296.92 1531.19 2300.82 1535.1C2304.73 1539 2304.72 1545.33 2300.82 1549.24L2285.03 1565.01C2283.07 1566.96 2280.52 1567.94 2277.96 1567.94Z" />
		<path id="&lt;Path&gt;" class="shp0" d="M2416.96 1567.94C2414.4 1567.94 2411.84 1566.96 2409.88 1565.01C2405.98 1561.1 2405.98 1554.77 2409.89 1550.87L2425.68 1535.09C2429.59 1531.19 2435.92 1531.19 2439.82 1535.1C2443.73 1539 2443.72 1545.33 2439.82 1549.24L2424.03 1565.01C2422.07 1566.96 2419.52 1567.94 2416.96 1567.94Z" />
		<path id="&lt;Path&gt;" class="shp0" d="M2459.96 1606.1C2457.39 1606.1 2454.83 1605.12 2452.88 1603.16C2448.98 1599.25 2448.99 1592.92 2452.9 1589.02L2471.89 1570.08C2475.8 1566.18 2482.13 1566.19 2486.03 1570.1C2489.93 1574.01 2489.92 1580.34 2486.01 1584.24L2467.02 1603.18C2465.07 1605.13 2462.51 1606.1 2459.96 1606.1Z" />
		<path id="&lt;Path&gt;" class="shp0" d="M2310.96 1604.1C2308.4 1604.1 2305.84 1603.13 2303.88 1601.17C2299.98 1597.26 2299.98 1590.93 2303.89 1587.03L2355.88 1535.09C2359.79 1531.19 2366.12 1531.19 2370.02 1535.1C2373.93 1539 2373.92 1545.33 2370.02 1549.24L2318.03 1601.18C2316.07 1603.13 2313.52 1604.1 2310.96 1604.1Z" />
		<path id="&lt;Path&gt;" class="shp0" d="M2492.78 1423L2483 1423C2477.48 1423 2473 1418.52 2473 1413C2473 1407.48 2477.48 1403 2483 1403L2492.6 1403C2517.77 1402.09 2537.46 1382.19 2537.46 1357.63C2537.46 1332.64 2517.17 1312.32 2492.22 1312.32C2490.94 1312.32 2489.93 1312.34 2489.04 1312.41C2486.37 1312.59 2483.77 1311.71 2481.77 1309.96C2479.76 1308.21 2478.54 1305.73 2478.37 1303.07C2475.73 1261.97 2441.38 1229.77 2400.15 1229.77C2372.5 1229.77 2347.43 1243.9 2333.07 1267.56C2331.48 1270.19 2328.76 1271.94 2325.71 1272.31C2322.66 1272.67 2319.6 1271.61 2317.43 1269.43C2312.77 1264.74 2306.58 1262.16 2299.98 1262.16C2286.4 1262.16 2275.36 1273.21 2275.36 1286.78C2275.36 1290.65 2276.24 1294.36 2277.97 1297.81C2279.5 1300.85 2279.38 1304.45 2277.65 1307.38C2275.92 1310.31 2272.83 1312.16 2269.43 1312.29C2245.14 1313.25 2226.1 1333.11 2226.1 1357.49C2226.1 1382.34 2246.3 1402.7 2271.13 1402.86L2279.76 1402.87C2285.29 1402.87 2289.76 1407.35 2289.76 1412.87C2289.76 1418.39 2285.28 1422.87 2279.76 1422.87C2279.76 1422.87 2279.75 1422.87 2279.75 1422.87L2271.06 1422.86C2235.22 1422.63 2206.1 1393.3 2206.1 1357.49C2206.1 1326.7 2227.16 1300.92 2255.95 1294.05C2255.56 1291.67 2255.36 1289.24 2255.36 1286.78C2255.36 1262.18 2275.38 1242.16 2299.98 1242.16C2307.91 1242.16 2315.52 1244.22 2322.21 1248.08C2340.76 1223.9 2369.17 1209.77 2400.15 1209.77C2448.75 1209.77 2489.74 1245.42 2497.29 1292.51C2530.91 1295.11 2557.46 1323.32 2557.46 1357.63C2557.46 1393.09 2529.2 1421.8 2493.11 1422.99C2493 1423 2492.89 1423 2492.78 1423Z" />
		<path id="&lt;Compound Path&gt;" fill-rule="evenodd" class="shp0" d="M120.72 306.19C82.25 305.94 51 274.53 51 236.19C51 202.86 73.99 175.01 105.28 167.92C104.77 165.12 104.51 162.27 104.51 159.36C104.51 133.11 125.87 111.75 152.13 111.75C160.85 111.75 169.2 114.08 176.5 118.44C196.48 92.02 227.31 76.54 260.96 76.54C313.54 76.54 357.87 115.28 365.74 166.33C402.13 168.78 431 199.18 431 236.19C431 274.41 399.9 305.81 361.68 306.19L120.72 306.19ZM152.13 131.75C136.9 131.75 124.51 144.14 124.51 159.36C124.51 163.71 125.5 167.87 127.44 171.74C128.97 174.78 128.85 178.38 127.12 181.31C125.4 184.24 122.3 186.09 118.9 186.22C92.04 187.28 71 209.23 71 236.19C71 263.58 93.33 286.01 120.78 286.19L361.58 286.19C388.79 285.92 411 263.49 411 236.19C411 208.61 388.56 186.17 360.98 186.17C359.96 186.17 358.84 186.21 357.47 186.31C354.81 186.49 352.19 185.61 350.19 183.86C348.19 182.11 346.97 179.63 346.8 176.97C343.9 131.87 306.2 96.54 260.96 96.54C230.62 96.54 203.1 112.05 187.34 138.03C185.75 140.66 183.03 142.41 179.98 142.77C176.92 143.13 173.87 142.08 171.7 139.9C166.48 134.65 159.53 131.75 152.13 131.75Z" />
		<path id="&lt;Path&gt;" class="shp0" d="M361.58 882.09L351 882.09C345.47 882.08 341 877.61 341 872.08C341 866.56 345.48 862.09 351 862.09C351 862.09 351 862.09 351 862.09L361.54 862.09C388.81 861.8 411 839.4 411 812.14C411 784.57 388.56 762.15 360.98 762.15C359.8 762.15 358.54 762.22 357.47 762.3C354.81 762.48 352.19 761.6 350.19 759.85C348.19 758.09 346.97 755.62 346.8 752.96C343.9 707.86 306.2 672.54 260.96 672.54C230.62 672.54 203.1 688.05 187.34 714.03C185.75 716.66 183.03 718.41 179.98 718.77C176.92 719.13 173.87 718.07 171.7 715.89C166.48 710.64 159.53 707.75 152.13 707.75C136.9 707.75 124.51 720.14 124.51 735.36C124.51 739.71 125.5 743.87 127.44 747.74C128.97 750.77 128.85 754.38 127.12 757.31C125.4 760.24 122.3 762.09 118.9 762.22C92.04 763.28 71 785.19 71 812.09C71 839.61 93.3 862 120.72 862L131 862C136.52 862 141 866.48 141 872C141 877.52 136.52 882 131 882L120.72 882C82.27 882 51 850.64 51 812.09C51 778.81 73.99 751 105.28 743.92C104.77 741.12 104.51 738.27 104.51 735.36C104.51 709.11 125.87 687.75 152.13 687.75C160.85 687.75 169.2 690.08 176.49 694.44C196.48 668.01 227.31 652.54 260.96 652.54C313.54 652.54 357.87 691.27 365.73 742.3C402.14 744.75 431 775.14 431 812.14C431 850.33 399.9 881.71 361.68 882.09C361.65 882.09 361.61 882.09 361.58 882.09Z" />
		<path id="&lt;Path&gt;" class="shp0" d="M147.03 976.08C144.48 976.08 141.92 975.11 139.97 973.16C136.06 969.26 136.05 962.93 139.96 959.02L182.92 916L157.03 916C152.94 916 149.26 913.51 147.75 909.71C146.23 905.91 147.18 901.57 150.15 898.75L213.15 838.92C217.15 835.12 223.48 835.28 227.28 839.29C231.09 843.29 230.92 849.62 226.92 853.42L182.08 896L207.03 896C211.08 896 214.72 898.43 216.27 902.17C217.82 905.91 216.97 910.21 214.11 913.07L154.11 973.15C152.16 975.11 149.59 976.08 147.03 976.08Z" />
		<path id="&lt;Path&gt;" class="shp0" d="M248.96 940.94C246.4 940.94 243.84 939.96 241.88 938.01C237.98 934.1 237.98 927.77 241.89 923.87L284.8 881L258.96 881C254.87 881 251.19 878.51 249.68 874.72C248.16 870.92 249.1 866.59 252.05 863.77L315.05 803.64C319.05 799.83 325.38 799.98 329.19 803.98C333.01 807.97 332.86 814.3 328.86 818.11L283.92 861L308.96 861C313 861 316.65 863.44 318.2 867.18C319.75 870.91 318.89 875.22 316.03 878.07L256.03 938.01C254.07 939.96 251.52 940.94 248.96 940.94Z" />
		<path id="&lt;Path&gt;" class="shp0" d="M197.96 988.94C195.4 988.94 192.84 987.96 190.88 986.01C186.98 982.1 186.98 975.77 190.89 971.87L215.93 946.85C219.84 942.95 226.17 942.95 230.07 946.86C233.98 950.76 233.97 957.09 230.07 961L205.03 986.01C203.07 987.96 200.52 988.94 197.96 988.94Z" />
		<path id="&lt;Path&gt;" class="shp0" d="M106.96 955.94C104.4 955.94 101.84 954.96 99.88 953.01C95.98 949.1 95.98 942.77 99.89 938.87L115.68 923.09C119.59 919.19 125.92 919.19 129.82 923.1C133.73 927 133.72 933.33 129.82 937.24L114.03 953.01C112.07 954.96 109.52 955.94 106.96 955.94Z" />
		<path id="&lt;Path&gt;" class="shp0" d="M285.96 969.94C283.4 969.94 280.84 968.96 278.88 967.01C274.98 963.1 274.98 956.77 278.89 952.87L330.88 900.93C334.79 897.02 341.12 897.03 345.02 900.93C348.93 904.84 348.92 911.17 345.02 915.07L293.03 967.01C291.07 968.96 288.52 969.94 285.96 969.94Z" />
		<path id="&lt;Compound Path&gt;" fill-rule="evenodd" class="shp0" d="M891.58 1472.09L881 1472.09L650.72 1472C612.27 1472 581 1440.64 581 1402.09C581 1368.81 603.99 1341 635.28 1333.92C634.77 1331.12 634.51 1328.27 634.51 1325.36C634.51 1299.11 655.87 1277.75 682.13 1277.75C690.85 1277.75 699.2 1280.08 706.49 1284.44C726.48 1258.01 757.31 1242.54 790.96 1242.54C843.54 1242.54 887.87 1281.27 895.73 1332.3C932.14 1334.75 961 1365.14 961 1402.14C961 1440.33 929.9 1471.71 891.68 1472.09C891.65 1472.09 891.61 1472.09 891.58 1472.09ZM881 1452.09L891.54 1452.09C918.81 1451.8 941 1429.4 941 1402.14C941 1374.57 918.56 1352.15 890.98 1352.15C889.8 1352.15 888.54 1352.22 887.47 1352.3C884.82 1352.49 882.19 1351.6 880.19 1349.85C878.19 1348.09 876.97 1345.62 876.8 1342.96C873.9 1297.86 836.2 1262.54 790.96 1262.54C760.62 1262.54 733.1 1278.05 717.34 1304.03C715.75 1306.66 713.03 1308.41 709.98 1308.77C706.92 1309.13 703.87 1308.07 701.7 1305.89C696.48 1300.64 689.53 1297.75 682.13 1297.75C666.9 1297.75 654.51 1310.14 654.51 1325.36C654.51 1329.71 655.5 1333.87 657.44 1337.74C658.97 1340.77 658.85 1344.38 657.12 1347.31C655.4 1350.24 652.3 1352.09 648.9 1352.22C622.04 1353.28 601 1375.19 601 1402.09C601 1429.61 623.3 1452 650.72 1452L661 1452L881 1452.09Z" />
		<path id="&lt;Path&gt;" class="shp0" d="M868.63 1557C868.62 1557 868.62 1557 868.62 1557L812.24 1556.98C806.72 1556.97 802.25 1552.5 802.25 1546.98C802.25 1541.46 806.73 1537 812.25 1537C812.25 1537 812.25 1537 812.26 1537L868.63 1537.03C874.15 1537.04 878.63 1541.5 878.63 1547.02C878.62 1552.54 874.14 1557 868.63 1557Z" />
		<path id="&lt;Path&gt;" class="shp0" d="M773.25 1557C773.25 1557 773.25 1557 773.25 1557L673.83 1556.98C668.31 1556.97 663.83 1552.51 663.83 1546.98C663.84 1541.46 668.31 1537 673.83 1537C673.84 1537 673.84 1537 673.84 1537L773.25 1537.03C778.78 1537.03 783.25 1541.5 783.25 1547.02C783.25 1552.54 778.77 1557 773.25 1557Z" />
		<path id="&lt;Path&gt;" class="shp0" d="M891.88 1515C891.87 1515 891.87 1515 891.87 1515L762.33 1514.98C756.81 1514.97 752.33 1510.51 752.33 1504.99C752.34 1499.46 756.81 1495 762.33 1495C762.33 1495 762.34 1495 762.34 1495L891.88 1495.03C897.4 1495.03 901.88 1499.5 901.88 1505.02C901.87 1510.54 897.4 1515 891.88 1515Z" />
		<path id="&lt;Path&gt;" class="shp0" d="M724.88 1515C724.87 1515 724.87 1515 724.87 1515L653.33 1514.98C647.81 1514.97 643.33 1510.51 643.33 1504.98C643.34 1499.46 647.81 1495 653.33 1495C653.34 1495 653.34 1495 653.34 1495L724.88 1495.03C730.4 1495.03 734.88 1499.5 734.88 1505.02C734.87 1510.54 730.4 1515 724.88 1515Z" />
		<path id="&lt;Compound Path&gt;" fill-rule="evenodd" class="shp0" d="M1321.91 1532.1C1255.74 1532.1 1201.91 1478.27 1201.91 1412.1C1201.91 1345.93 1255.74 1292.1 1321.91 1292.1C1325.12 1292.1 1328.4 1292.23 1331.67 1292.5C1335.25 1292.78 1338.4 1294.97 1339.92 1298.21C1341.45 1301.46 1341.11 1305.28 1339.05 1308.21C1327.18 1325.09 1320.91 1344.95 1320.91 1365.65C1320.91 1390.94 1330.37 1415.08 1347.56 1433.61C1364.65 1452.05 1387.8 1463.31 1412.76 1465.32C1416.33 1465.61 1419.48 1467.79 1421.01 1471.04C1422.53 1474.29 1422.2 1478.11 1420.14 1481.04C1397.66 1513.01 1360.94 1532.1 1321.91 1532.1ZM1313.31 1312.46C1262.18 1316.84 1221.91 1359.86 1221.91 1412.1C1221.91 1467.24 1266.77 1512.1 1321.91 1512.1C1348.8 1512.1 1374.38 1501.22 1393.02 1482.39C1370.09 1476.93 1349.19 1464.79 1332.89 1447.21C1312.27 1424.97 1300.91 1396 1300.91 1365.65C1300.91 1347 1305.16 1328.9 1313.31 1312.46Z" />
		<path id="&lt;Compound Path&gt;" fill-rule="evenodd" class="shp0" d="M891.58 882.09L881 882.09L650.72 882C612.27 882 581 850.64 581 812.09C581 778.81 603.99 751 635.28 743.92C634.77 741.12 634.51 738.27 634.51 735.36C634.51 709.11 655.87 687.75 682.13 687.75C690.85 687.75 699.2 690.08 706.49 694.44C726.48 668.01 757.31 652.54 790.96 652.54C843.54 652.54 887.87 691.27 895.73 742.3C932.14 744.75 961 775.14 961 812.14C961 850.33 929.9 881.71 891.68 882.09C891.65 882.09 891.61 882.09 891.58 882.09ZM881 862.09L891.54 862.09C918.81 861.8 941 839.4 941 812.14C941 784.57 918.56 762.15 890.98 762.15C889.8 762.15 888.54 762.22 887.47 762.3C884.82 762.48 882.19 761.6 880.19 759.85C878.19 758.09 876.97 755.62 876.8 752.96C873.9 707.86 836.2 672.54 790.96 672.54C760.62 672.54 733.1 688.05 717.34 714.03C715.75 716.66 713.03 718.41 709.98 718.77C706.92 719.13 703.87 718.07 701.7 715.89C696.48 710.64 689.53 707.75 682.13 707.75C666.9 707.75 654.51 720.14 654.51 735.36C654.51 739.71 655.5 743.87 657.44 747.74C658.97 750.77 658.85 754.38 657.12 757.31C655.4 760.24 652.3 762.09 648.9 762.22C622.04 763.28 601 785.19 601 812.09C601 839.61 623.3 862 650.72 862L661 862L881 862.09Z" />
		<path id="&lt;Path&gt;" class="shp0" d="M735.96 988.94C733.4 988.94 730.84 987.96 728.88 986.01C724.98 982.1 724.98 975.77 728.89 971.87L753.93 946.85C757.84 942.95 764.17 942.95 768.07 946.86C771.98 950.76 771.97 957.09 768.07 961L743.03 986.01C741.07 987.96 738.52 988.94 735.96 988.94Z" />
		<path id="&lt;Path&gt;" class="shp0" d="M648.96 931.94C646.4 931.94 643.84 930.96 641.88 929.01C637.98 925.1 637.98 918.77 641.89 914.87L657.68 899.09C661.59 895.19 667.92 895.19 671.82 899.1C675.73 903 675.72 909.33 671.82 913.24L656.03 929.01C654.07 930.96 651.52 931.94 648.96 931.94Z" />
		<path id="&lt;Path&gt;" class="shp0" d="M787.96 931.94C785.4 931.94 782.84 930.96 780.88 929.01C776.98 925.1 776.98 918.77 780.89 914.87L796.68 899.09C800.59 895.19 806.92 895.19 810.82 899.1C814.73 903 814.72 909.33 810.82 913.24L795.03 929.01C793.07 930.96 790.52 931.94 787.96 931.94Z" />
		<path id="&lt;Path&gt;" class="shp0" d="M832.96 957.1C830.4 957.1 827.84 956.13 825.88 954.17C821.98 950.26 821.98 943.93 825.89 940.03L866.88 899.09C870.79 895.18 877.12 895.19 881.03 899.1C884.93 903 884.92 909.34 881.02 913.24L840.02 954.18C838.07 956.13 835.52 957.1 832.96 957.1Z" />
		<path id="&lt;Path&gt;" class="shp0" d="M681.96 968.1C679.4 968.1 676.84 967.13 674.88 965.17C670.98 961.26 670.98 954.93 674.89 951.03L726.88 899.09C730.79 895.19 737.12 895.19 741.02 899.1C744.93 903 744.92 909.33 741.02 913.24L689.03 965.18C687.07 967.13 684.52 968.1 681.96 968.1Z" />
		<path id="&lt;Compound Path&gt;" fill-rule="evenodd" class="shp0" d="M1431.58 860.09L1421 860.09L1190.72 860C1152.27 860 1121 828.64 1121 790.09C1121 756.81 1143.99 729 1175.28 721.92C1174.77 719.12 1174.51 716.27 1174.51 713.36C1174.51 687.11 1195.87 665.75 1222.13 665.75C1230.85 665.75 1239.2 668.08 1246.49 672.44C1266.48 646.01 1297.31 630.54 1330.96 630.54C1383.54 630.54 1427.87 669.27 1435.73 720.3C1472.14 722.75 1501 753.14 1501 790.14C1501 828.33 1469.9 859.71 1431.68 860.09C1431.65 860.09 1431.61 860.09 1431.58 860.09ZM1421 840.09L1431.53 840.09C1458.81 839.8 1481 817.4 1481 790.14C1481 762.57 1458.56 740.15 1430.98 740.15C1429.8 740.15 1428.54 740.22 1427.47 740.3C1424.83 740.48 1422.2 739.6 1420.19 737.85C1418.19 736.09 1416.97 733.62 1416.8 730.96C1413.9 685.86 1376.2 650.54 1330.96 650.54C1300.62 650.54 1273.1 666.05 1257.34 692.03C1255.75 694.66 1253.03 696.41 1249.98 696.77C1246.92 697.13 1243.87 696.07 1241.7 693.89C1236.48 688.64 1229.53 685.75 1222.13 685.75C1206.9 685.75 1194.51 698.14 1194.51 713.36C1194.51 717.71 1195.5 721.87 1197.44 725.74C1198.97 728.77 1198.85 732.38 1197.12 735.31C1195.4 738.24 1192.3 740.09 1188.9 740.22C1162.04 741.28 1141 763.19 1141 790.09C1141 817.61 1163.3 840 1190.72 840L1201 840L1421 840.09Z" />
		<path id="&lt;Path&gt;" class="shp0" d="M1215 995.05C1212.44 995.05 1209.88 994.08 1207.93 992.12C1204.02 988.21 1204.03 981.88 1207.94 977.98L1269.84 916.14C1273.75 912.24 1280.08 912.24 1283.98 916.15C1287.88 920.05 1287.88 926.38 1283.97 930.29L1222.07 992.13C1220.12 994.08 1217.56 995.05 1215 995.05Z" />
		<path id="&lt;Path&gt;" class="shp0" d="M1276.87 995.08C1274.31 995.08 1271.75 994.11 1269.8 992.15L1207.96 930.25C1204.06 926.34 1204.06 920.01 1207.97 916.11C1211.87 912.21 1218.21 912.21 1222.11 916.11L1283.95 978.02C1287.85 981.92 1287.85 988.26 1283.94 992.16C1281.99 994.11 1279.43 995.08 1276.87 995.08Z" />
		<path id="&lt;Path&gt;" class="shp0" d="M1295.95 964C1295.95 964 1295.95 964 1295.95 964L1195.95 964.03C1190.43 964.03 1185.95 959.53 1185.95 954.01C1185.96 948.49 1190.43 944 1195.95 944C1195.96 944 1195.96 944 1195.96 944L1295.96 944.1C1301.48 944.11 1305.96 948.53 1305.95 954.06C1305.95 959.58 1301.47 964 1295.95 964Z" />
		<path id="&lt;Path&gt;" class="shp0" d="M1245.93 1014C1245.93 1014 1245.93 1014 1245.92 1014C1240.4 1014 1235.93 1009.58 1235.93 1004.06L1235.98 904.03C1235.98 898.51 1240.46 894 1245.98 894C1245.98 894 1245.98 894 1245.98 894C1251.51 894 1255.98 898.55 1255.98 904.07L1255.93 1004.04C1255.93 1009.56 1251.45 1014 1245.93 1014Z" />
		<path id="&lt;Path&gt;" class="shp0" d="M1353.71 950.73C1350.27 950.73 1346.91 948.95 1345.06 945.76C1342.28 940.99 1343.9 934.87 1348.67 932.09L1409.18 896.89C1413.95 894.11 1420.07 895.73 1422.85 900.5C1425.63 905.28 1424.01 911.4 1419.24 914.18L1358.73 949.38C1357.15 950.3 1355.42 950.73 1353.71 950.73Z" />
		<path id="&lt;Path&gt;" class="shp0" d="M1414.71 949.83C1413.1 949.83 1411.46 949.44 1409.95 948.62L1348.42 915.23C1343.57 912.59 1341.77 906.52 1344.4 901.67C1347.04 896.81 1353.11 895.01 1357.96 897.65L1419.49 931.04C1424.34 933.67 1426.14 939.74 1423.5 944.6C1421.69 947.94 1418.26 949.83 1414.71 949.83Z" />
		<path id="&lt;Path&gt;" class="shp0" d="M1383.94 968C1383.93 968 1383.93 968 1383.93 968C1378.41 968 1373.93 963.29 1373.94 957.77L1373.97 888.97C1373.97 883.45 1378.45 879 1383.97 879C1383.97 879 1383.97 879 1383.98 879C1389.5 879 1393.97 883.34 1393.97 888.87L1393.94 957.85C1393.93 963.37 1389.46 968 1383.94 968Z" />
		<path id="&lt;Path&gt;" class="shp0" d="M165.71 1507.73C162.27 1507.73 158.91 1505.95 157.06 1502.76C154.28 1497.99 155.9 1491.87 160.67 1489.09L221.18 1453.89C225.95 1451.11 232.07 1452.73 234.85 1457.5C237.63 1462.28 236.01 1468.4 231.24 1471.18L170.73 1506.38C169.15 1507.3 167.42 1507.73 165.71 1507.73Z" />
		<path id="&lt;Path&gt;" class="shp0" d="M226.71 1506.83C225.1 1506.83 223.46 1506.44 221.95 1505.62L160.42 1472.23C155.57 1469.59 153.77 1463.52 156.4 1458.67C159.04 1453.81 165.11 1452.02 169.96 1454.65L231.49 1488.04C236.34 1490.67 238.14 1496.74 235.5 1501.6C233.69 1504.94 230.26 1506.83 226.71 1506.83Z" />
		<path id="&lt;Path&gt;" class="shp0" d="M195.94 1525C195.93 1525 195.93 1525 195.93 1525C190.41 1525 185.93 1520.29 185.94 1514.77L185.97 1445.97C185.97 1440.45 190.45 1436 195.97 1436C195.97 1436 195.97 1436 195.98 1436C201.5 1436 205.97 1440.34 205.97 1445.87L205.94 1514.85C205.93 1520.37 201.46 1525 195.94 1525Z" />
		<path id="&lt;Path&gt;" class="shp0" d="M260.71 1473.73C257.27 1473.73 253.91 1471.95 252.06 1468.76C249.28 1463.99 250.9 1457.87 255.67 1455.09L316.18 1419.89C320.95 1417.11 327.07 1418.73 329.85 1423.5C332.63 1428.28 331.01 1434.4 326.24 1437.18L265.73 1472.38C264.15 1473.3 262.42 1473.73 260.71 1473.73Z" />
		<path id="&lt;Path&gt;" class="shp0" d="M321.71 1472.83C320.1 1472.83 318.46 1472.44 316.95 1471.62L255.42 1438.23C250.57 1435.59 248.77 1429.52 251.4 1424.67C254.04 1419.81 260.11 1418.01 264.96 1420.65L326.49 1454.04C331.34 1456.67 333.14 1462.74 330.5 1467.6C328.69 1470.94 325.26 1472.83 321.71 1472.83Z" />
		<path id="&lt;Path&gt;" class="shp0" d="M290.94 1491C290.93 1491 290.93 1491 290.93 1491C285.41 1491 280.93 1486.29 280.94 1480.77L280.97 1411.97C280.97 1406.45 285.45 1402 290.97 1402C290.97 1402 290.97 1402 290.98 1402C296.5 1402 300.97 1406.34 300.97 1411.87L300.94 1480.85C300.93 1486.37 296.46 1491 290.94 1491Z" />
		<path id="&lt;Path&gt;" class="shp0" d="M178.96 1589.94C176.4 1589.94 173.84 1588.96 171.88 1587.01C167.98 1583.1 167.98 1576.77 171.89 1572.87L196.93 1547.85C200.84 1543.95 207.17 1543.95 211.07 1547.86C214.98 1551.76 214.97 1558.09 211.07 1562L186.03 1587.01C184.07 1588.96 181.52 1589.94 178.96 1589.94Z" />
		<path id="&lt;Path&gt;" class="shp0" d="M129.96 1556.94C127.4 1556.94 124.84 1555.96 122.88 1554.01C118.98 1550.1 118.98 1543.77 122.89 1539.87L138.68 1524.09C142.59 1520.19 148.92 1520.19 152.82 1524.1C156.73 1528 156.72 1534.33 152.82 1538.24L137.03 1554.01C135.07 1555.96 132.52 1556.94 129.96 1556.94Z" />
		<path id="&lt;Path&gt;" class="shp0" d="M244.96 1541.94C242.4 1541.94 239.84 1540.96 237.88 1539.01C233.98 1535.1 233.98 1528.77 237.89 1524.87L253.68 1509.09C257.59 1505.19 263.92 1505.19 267.82 1509.1C271.73 1513 271.72 1519.33 267.82 1523.24L252.03 1539.01C250.07 1540.96 247.52 1541.94 244.96 1541.94Z" />
		<path id="&lt;Path&gt;" class="shp0" d="M285.96 1559.94C283.4 1559.94 280.84 1558.96 278.88 1557.01C274.98 1553.1 274.98 1546.77 278.89 1542.87L330.88 1490.93C334.79 1487.02 341.12 1487.03 345.02 1490.93C348.93 1494.84 348.92 1501.17 345.02 1505.07L293.03 1557.01C291.07 1558.96 288.52 1559.94 285.96 1559.94Z" />
		<path id="&lt;Path&gt;" class="shp0" d="M362.08 1472.09L352 1472.09C346.47 1472.08 342 1467.61 342 1462.08C342 1456.56 346.48 1452.09 352 1452.09C352 1452.09 352 1452.09 352 1452.09L362.04 1452.09C375.25 1451.95 387.62 1446.71 396.87 1437.33C406.14 1427.93 411.25 1415.43 411.25 1402.14C411.25 1374.57 388.76 1352.15 361.11 1352.15C359.85 1352.15 358.46 1352.23 357.53 1352.3C354.88 1352.49 352.26 1351.6 350.25 1349.85C348.25 1348.09 347.03 1345.62 346.86 1342.96C343.97 1297.86 306.25 1262.54 260.99 1262.54C230.64 1262.54 203.11 1278.05 187.36 1304.03C185.76 1306.66 183.05 1308.41 179.99 1308.77C176.94 1309.13 173.89 1308.07 171.72 1305.89C166.5 1300.64 159.54 1297.75 152.13 1297.75C136.91 1297.75 124.52 1310.14 124.52 1325.36C124.52 1329.71 125.5 1333.87 127.45 1337.74C128.97 1340.77 128.85 1344.38 127.13 1347.31C125.4 1350.24 122.3 1352.09 118.91 1352.22C92.04 1353.28 71 1375.19 71 1402.09C71 1429.61 93.3 1452 120.72 1452L133 1452C138.52 1452 143 1456.48 143 1462C143 1467.52 138.52 1472 133 1472L120.72 1472C82.28 1472 51 1440.64 51 1402.09C51 1368.81 73.99 1341 105.28 1333.92C104.77 1331.12 104.52 1328.27 104.52 1325.36C104.52 1299.11 125.88 1277.75 152.13 1277.75C160.86 1277.75 169.22 1280.08 176.51 1284.44C196.49 1258.01 227.33 1242.54 260.99 1242.54C313.58 1242.54 357.92 1281.27 365.8 1332.3C402.3 1334.71 431.25 1365.12 431.25 1402.14C431.25 1420.72 424.1 1438.21 411.11 1451.37C398.11 1464.55 380.73 1471.91 362.18 1472.09C362.15 1472.09 362.11 1472.09 362.08 1472.09Z" />
	</g>
</svg>